# File created by Blade
# Date/Time:  Tue Sep 30 19:35:54 2014
#---------------------------------------------------------
:version 1.10
:name HOM
:units
  mass 1.0
  length 1.000000
  angle deg
:documentation
     Acclaim Skeleton File
:root
   axis xyz
   order TX TY TZ RX RY RZ
   position 0.000000 0.000000 0.000000
   orientation 0 0 0
:bonedata
   begin
      id 1
      name Spine_dum
      direction 0.000000 1.000000 0.000000
      length 3.241213
      axis 0.0 0.0 0.0 xyz
   end
   begin
      id 2
      name LeftUpLeg_dum
      direction 1.000000 0.000000 0.000000
      length 3.434019
      axis 0.0 0.0 0.0 xyz
   end
   begin
      id 3
      name RightUpLeg_dum
      direction -1.000000 0.000000 0.000000
      length 3.434019
      axis 0.0 0.0 0.0 xyz
   end
   begin
      id 4
      name Spine
      direction 0.000000 1.000000 0.000000
      length 0.000000
      axis 0.0 0.0 0.0 xyz
      dof rx ry rz
   end
   begin
      id 5
      name Spine_dum1
      direction 0.000000 1.000000 0.000000
      length 18.382958
      axis 0.0 0.0 0.0 xyz
   end
   begin
      id 6
      name Spine_dum2
      direction 0.000000 1.000000 0.000000
      length 12.828261
      axis 0.0 0.0 0.0 xyz
   end
   begin
      id 7
      name Spine_dum3
      direction 0.000000 1.000000 0.000000
      length 12.828261
      axis 0.0 0.0 0.0 xyz
   end
   begin
      id 8
      name Head
      direction 0.000000 1.000000 0.000000
      length 4.527550
      axis 0.0 0.0 0.0 xyz
      dof rx ry rz
   end
   begin
      id 9
      name LeftShoulder
      direction 1.000000 0.000000 0.000000
      length 7.748055
      axis 0.0 0.0 -90.0 xyz
      dof rx ry rz
   end
   begin
      id 10
      name LeftArm
      direction 1.000000 0.000000 0.000000
      length 10.635614
      axis 0.0 0.0 -90.0 xyz
      dof rx ry rz
   end
   begin
      id 11
      name LeftForeArm
      direction 1.000000 0.000000 0.000000
      length 8.346755
      axis 0.0 0.0 -90.0 xyz
      dof ry rz rx
   end
   begin
      id 12
      name LeftHand
      direction 0.000000 0.000000 0.000000
      length 0.000000
      axis 0.0 0.0 -90.0 xyz
      dof rx ry rz
   end
   begin
      id 13
      name LeftHand_dum1
      direction 0.000000 0.000000 0.000000
      length 0.000000
      axis 0.0 0.0 -90.0 xyz
   end
   begin
      id 14
      name LeftHand_dum2
      direction 1.000000 0.000000 0.000000
      length 3.937000
      axis 0.0 0.0 -90.0 xyz
   end
   begin
      id 15
      name LeftHandThumb1
      direction 0.000000 0.000000 1.000000
      length 3.937000
      axis 0.0 0.0 -90.0 xyz
      dof rx rz ry
   end
   begin
      id 16
      name RightShoulder
      direction -1.000000 0.000000 0.000000
      length 7.748055
      axis 0.0 0.0 90.0 xyz
      dof rx ry rz
   end
   begin
      id 17
      name RightArm
      direction -1.000000 0.000000 0.000000
      length 10.635614
      axis 0.0 0.0 90.0 xyz
      dof rx ry rz
   end
   begin
      id 18
      name RightForeArm
      direction -1.000000 0.000000 0.000000
      length 8.346755
      axis 0.0 0.0 90.0 xyz
      dof ry rz rx
   end
   begin
      id 19
      name RightHand
      direction 0.000000 0.000000 0.000000
      length 0.000000
      axis 0.0 0.0 90.0 xyz
      dof rx ry rz
   end
   begin
      id 20
      name RightHand_dum1
      direction 0.000000 0.000000 0.000000
      length 0.000000
      axis 0.0 0.0 90.0 xyz
   end
   begin
      id 21
      name RightHand_dum2
      direction -1.000000 0.000000 0.000000
      length 3.937000
      axis 0.0 0.0 90.0 xyz
   end
   begin
      id 22
      name RightHandThumb1
      direction 0.000000 0.000000 1.000000
      length 3.937000
      axis 0.0 0.0 90.0 xyz
      dof rx rz ry
   end
   begin
      id 23
      name LeftUpLeg
      direction 0.000000 -1.000000 0.000000
      length 15.713025
      axis 0.0 0.0 0.0 xyz
      dof rx ry rz
   end
   begin
      id 24
      name LeftLeg
      direction 0.000000 -1.000000 0.000000
      length 14.435119
      axis 0.0 0.0 0.0 xyz
      dof rx ry rz
   end
   begin
      id 25
      name LeftFoot
      direction 0.000000 -0.258819 0.965926
      length 4.938895
      axis 15.0 0.0 0.0 xyz
      dof rx ry rz
   end
   begin
      id 26
      name LeftToeBase
      direction 0.000000 0.000000 1.000000
      length 2.952750
      axis 0.0 0.0 0.0 xyz
      dof rx ry rz
   end
   begin
      id 27
      name RightUpLeg
      direction 0.000000 -1.000000 0.000000
      length 15.713025
      axis 0.0 0.0 0.0 xyz
      dof rx ry rz
   end
   begin
      id 28
      name RightLeg
      direction 0.000000 -1.000000 0.000000
      length 14.435119
      axis 0.0 0.0 0.0 xyz
      dof rx ry rz
   end
   begin
      id 29
      name RightFoot
      direction 0.000000 -0.258819 0.965926
      length 4.938895
      axis 15.0 0.0 0.0 xyz
      dof rx ry rz
   end
   begin
      id 30
      name RightToeBase
      direction 0.000000 0.000000 1.000000
      length 2.952750
      axis 0.0 0.0 0.0 xyz
      dof rx ry rz
   end
:hierarchy
   begin
      root Spine_dum LeftUpLeg_dum RightUpLeg_dum
      Spine_dum Spine
      LeftUpLeg_dum LeftUpLeg
      RightUpLeg_dum RightUpLeg
      Spine Spine_dum1 Spine_dum2 Spine_dum3
      Spine_dum1 Head
      Spine_dum2 LeftShoulder
      Spine_dum3 RightShoulder
      LeftShoulder LeftArm
      LeftArm LeftForeArm
      LeftForeArm LeftHand
      LeftHand LeftHand_dum1 LeftHand_dum2
      LeftHand_dum1 LeftHandThumb1
      RightShoulder RightArm
      RightArm RightForeArm
      RightForeArm RightHand
      RightHand RightHand_dum1 RightHand_dum2
      RightHand_dum1 RightHandThumb1
      LeftUpLeg LeftLeg
      LeftLeg LeftFoot
      LeftFoot LeftToeBase
      RightUpLeg RightLeg
      RightLeg RightFoot
      RightFoot RightToeBase
   end

# File created by Blade
# Date/Time:  Tue Sep 23 19:15:59 2014
# Frame Rate: 120.000 fps
#------------------------------------------------------
:FULLY-SPECIFIED
:DEGREES
617
root 3.558668 32.845963 -4.249283 40.487220 -27.712913 -28.626063
Spine -30.062238 -12.683681 27.233617
Head 2.133433 -0.699558 3.651715
LeftShoulder 4.326176 40.117346 29.438624
LeftArm 84.054052 28.238978 -41.381556
LeftForeArm -8.368198 -0.000000 71.285316
LeftHand 48.645881 -0.000000 -5.070851
LeftHandThumb1 -26.253704 0.000000 33.147579
RightShoulder -10.650289 -48.995896 -12.967975
RightArm 67.312692 -15.105723 56.066165
RightForeArm 44.295443 -0.000000 82.495117
RightHand 2.247035 0.000000 27.602956
RightHandThumb1 -24.326973 -0.000000 -32.862282
LeftUpLeg -39.261193 20.883309 9.633741
LeftLeg 28.013595 -0.000000 -0.000000
LeftFoot -10.293584 33.955411 11.071853
LeftToeBase -3.674244 -0.000000 0.000000
RightUpLeg -163.106719 -10.646076 21.381129
RightLeg 98.597523 -0.000000 -0.000000
RightFoot 41.464323 -15.506520 8.935052
RightToeBase 46.756246 -0.000000 -0.000000
618
root 3.563905 32.839505 -4.289389 40.502369 -27.653531 -28.159219
Spine -30.107396 -12.606732 26.982435
Head 1.293639 -0.836251 3.320477
LeftShoulder 4.209039 40.201490 29.165217
LeftArm 84.010093 28.482128 -41.467045
LeftForeArm -8.581144 -0.000000 71.286439
LeftHand 48.706414 0.000000 -5.216897
LeftHandThumb1 -26.253704 0.000000 33.147579
RightShoulder -10.590807 -48.934778 -12.968190
RightArm 67.187974 -14.976121 55.702294
RightForeArm 44.710722 -0.000000 82.419519
RightHand 2.215502 -0.000000 27.659721
RightHandThumb1 -24.326973 -0.000000 -32.862282
LeftUpLeg -39.524736 20.916912 9.091205
LeftLeg 27.677483 -0.000000 -0.000000
LeftFoot -10.428290 33.607482 11.171394
LeftToeBase -3.286776 -0.000000 0.000000
RightUpLeg -163.159689 -10.538786 21.384166
RightLeg 100.661460 -0.000000 -0.000000
RightFoot 41.611461 -15.125983 8.817894
RightToeBase 46.882800 -0.000000 -0.000000
619
root 3.568663 32.841325 -4.321105 40.536154 -27.578334 -27.776596
Spine -30.134922 -12.500736 26.837774
Head 0.526874 -0.944000 2.946271
LeftShoulder 4.006434 40.221211 28.735590
LeftArm 83.960309 28.684235 -41.386940
LeftForeArm -8.631396 -0.000000 71.287634
LeftHand 48.796416 -0.000000 -5.191141
LeftHandThumb1 -26.253704 0.000000 33.147579
RightShoulder -10.418412 -48.881388 -13.040215
RightArm 66.966827 -14.800149 55.388091
RightForeArm 45.171465 -0.000000 82.403845
RightHand 2.317161 -0.000000 27.602809
RightHandThumb1 -24.326973 -0.000000 -32.862282
LeftUpLeg -39.724501 21.030435 8.596706
LeftLeg 27.288526 -0.000000 -0.000000
LeftFoot -10.630728 33.207947 11.257254
LeftToeBase -2.737088 -0.000000 0.000000
RightUpLeg -163.198090 -10.419943 21.497187
RightLeg 102.684513 -0.000000 -0.000000
RightFoot 41.713770 -14.683697 8.578799
RightToeBase 46.991290 -0.000000 -0.000000
620
root 3.569947 32.847878 -4.347632 40.493544 -27.493770 -27.321635
Spine -30.174644 -12.481085 26.659450
Head -0.134432 -1.016607 2.572984
LeftShoulder 3.747754 40.151752 28.244286
LeftArm 83.793699 28.853722 -41.342821
LeftForeArm -7.973237 -0.000000 71.339376
LeftHand 48.732227 -0.000000 -5.210739
LeftHandThumb1 -26.253704 0.000000 33.147579
RightShoulder -10.196120 -48.934533 -13.139416
RightArm 66.756268 -14.613428 55.143338
RightForeArm 45.642958 -0.000000 82.420980
RightHand 2.530525 -0.000000 27.720238
RightHandThumb1 -24.326973 -0.000000 -32.862282
LeftUpLeg -39.865035 21.085839 8.081601
LeftLeg 26.960181 -0.000000 -0.000000
LeftFoot -12.125827 32.228759 9.798084
LeftToeBase -0.614678 -0.000000 0.000000
RightUpLeg -163.265365 -10.347568 21.572443
RightLeg 104.690765 -0.000000 -0.000000
RightFoot 41.802974 -14.270740 8.281223
RightToeBase 47.012808 -0.000000 -0.000000
621
root 3.564192 32.854668 -4.369655 40.333967 -27.505321 -26.850101
Spine -30.108145 -12.481784 26.373908
Head -0.677652 -1.050982 2.241352
LeftShoulder 3.474366 40.134341 27.751830
LeftArm 83.705707 28.920656 -41.119102
LeftForeArm -7.498336 0.000000 71.359728
LeftHand 48.688825 0.000000 -5.108986
LeftHandThumb1 -26.253704 0.000000 33.147579
RightShoulder -9.840914 -49.018688 -13.302526
RightArm 66.542026 -14.430055 54.913009
RightForeArm 46.207578 -0.000000 82.411789
RightHand 2.541327 -0.000000 27.629698
RightHandThumb1 -24.326973 -0.000000 -32.862282
LeftUpLeg -39.815271 21.160679 7.569579
LeftLeg 26.492900 -0.000000 -0.000000
LeftFoot -12.097311 31.819105 10.025671
LeftToeBase -0.563544 -0.000000 0.000000
RightUpLeg -163.261327 -10.207507 21.578297
RightLeg 106.607212 -0.000000 -0.000000
RightFoot 41.938959 -13.986571 7.963524
RightToeBase 47.171335 -0.000000 -0.000000
622
root 3.551622 32.861082 -4.379846 40.079123 -27.431634 -26.320737
Spine -30.053451 -12.521263 26.086561
Head -1.141293 -1.138800 1.863082
LeftShoulder 3.260946 40.158191 27.285676
LeftArm 83.635274 28.918789 -40.861084
LeftForeArm -6.999172 -0.000000 71.439215
LeftHand 48.833952 0.000000 -5.727253
LeftHandThumb1 -26.253704 0.000000 33.147579
RightShoulder -9.577546 -49.178241 -13.442315
RightArm 66.269800 -14.221482 54.843291
RightForeArm 46.447558 -0.000000 82.471995
RightHand 2.556100 -0.000000 27.360512
RightHandThumb1 -24.326973 -0.000000 -32.862282
LeftUpLeg -39.648622 21.010095 7.168704
LeftLeg 26.029300 -0.000000 -0.000000
LeftFoot -12.114350 31.360405 10.275315
LeftToeBase -0.353487 -0.000000 0.000000
RightUpLeg -163.280014 -10.273553 21.541128
RightLeg 108.511640 -0.000000 -0.000000
RightFoot 42.085845 -13.433930 7.834003
RightToeBase 47.064381 -0.000000 -0.000000
623
root 3.559374 32.871894 -4.408249 40.167407 -27.590069 -25.887570
Spine -30.126922 -12.219979 25.731733
Head -1.626767 -1.244379 1.525177
LeftShoulder 2.999363 40.184541 26.820321
LeftArm 83.679660 28.854135 -40.490018
LeftForeArm -6.559154 0.000000 71.501615
LeftHand 48.744366 0.000000 -5.192961
LeftHandThumb1 -26.253704 0.000000 33.147579
RightShoulder -9.329069 -49.334878 -13.559953
RightArm 66.095410 -14.026690 54.669553
RightForeArm 46.801946 -0.000000 82.523561
RightHand 2.526095 0.000000 27.376019
RightHandThumb1 -24.326973 -0.000000 -32.862282
LeftUpLeg -39.773984 20.906406 6.660954
LeftLeg 25.609753 -0.000000 -0.000000
LeftFoot -12.618875 30.813342 9.707221
LeftToeBase 0.405198 -0.000000 -0.000000
RightUpLeg -163.413196 -10.045126 21.399655
RightLeg 110.088072 -0.000000 -0.000000
RightFoot 42.435610 -12.887715 7.941979
RightToeBase 46.896344 -0.000000 -0.000000
624
root 3.570898 32.883009 -4.440665 40.423956 -27.798119 -25.422492
Spine -30.364001 -11.776987 25.312113
Head -2.093614 -1.403246 1.222600
LeftShoulder 2.830252 40.254213 26.483037
LeftArm 83.734328 28.764339 -40.154250
LeftForeArm -6.006586 -0.000000 71.582345
LeftHand 48.496217 -0.000000 -5.219336
LeftHandThumb1 -26.253704 0.000000 33.147579
RightShoulder -9.162124 -49.482610 -13.658811
RightArm 65.904411 -13.886917 54.541615
RightForeArm 47.115827 -0.000000 82.586284
RightHand 2.503997 -0.000000 27.420818
RightHandThumb1 -24.326973 -0.000000 -32.862282
LeftUpLeg -40.052790 20.590918 6.181642
LeftLeg 25.263441 -0.000000 -0.000000
LeftFoot -13.452021 29.954423 8.816025
LeftToeBase 1.458305 -0.000000 -0.000000
RightUpLeg -163.670868 -9.706136 21.174969
RightLeg 111.456194 -0.000000 -0.000000
RightFoot 42.678300 -12.543819 8.162127
RightToeBase 47.208660 -0.000000 -0.000000
